<?xml version="1.0" encoding="utf-8"?>
<!-- Generator: Adobe Illustrator 23.0.1, SVG Export Plug-In . SVG Version: 6.00 Build 0)  -->
<svg version="1.1" id="Layer_1" xmlns="http://www.w3.org/2000/svg" xmlns:xlink="http://www.w3.org/1999/xlink" x="0px" y="0px"
	 viewBox="0 0 124.8 44.8" style="enable-background:new 0 0 124.8 44.8;" xml:space="preserve">
<style type="text/css">
	.st0{fill:#F7931A;}
	.st1{fill:#FFFFFF;}
	.st2{fill:#4D4D4D;}
</style>
<g transform="translate(-289.60744,-317.50471)">
	<path class="st0" d="M320,342.1c-1.5,6.1-7.7,9.8-13.8,8.3c-6.1-1.5-9.8-7.7-8.3-13.8c1.5-6.1,7.7-9.8,13.7-8.3
		C317.9,329.9,321.6,336,320,342.1z"/>
	<path class="st1" d="M314,337.8c0.2-1.5-0.9-2.3-2.5-2.9l0.5-2l-1.2-0.3l-0.5,2c-0.3-0.1-0.7-0.2-1-0.2l0.5-2l-1.2-0.3l-0.5,2
		c-0.3-0.1-0.5-0.1-0.8-0.2l0,0l-1.7-0.4l-0.3,1.3c0,0,0.9,0.2,0.9,0.2c0.5,0.1,0.6,0.5,0.6,0.7l-0.6,2.3c0,0,0.1,0,0.1,0
		c0,0-0.1,0-0.1,0l-0.8,3.3c-0.1,0.2-0.2,0.4-0.6,0.3c0,0-0.9-0.2-0.9-0.2l-0.6,1.4l1.6,0.4c0.3,0.1,0.6,0.2,0.9,0.2l-0.5,2.1
		l1.2,0.3l0.5-2c0.3,0.1,0.7,0.2,1,0.3l-0.5,2l1.2,0.3l0.5-2.1c2.1,0.4,3.7,0.2,4.4-1.7c0.5-1.5,0-2.4-1.1-3
		C313.3,339.4,313.9,338.9,314,337.8z M311.2,341.7c-0.4,1.5-3,0.7-3.8,0.5l0.7-2.7C308.9,339.7,311.6,340.1,311.2,341.7z
		 M311.6,337.7c-0.4,1.4-2.5,0.7-3.2,0.5l0.6-2.5C309.7,335.9,311.9,336.3,311.6,337.7z"/>
	<path class="st2" d="M330.9,334.9c0.9,0,1.7,0.2,2.4,0.5c0.7,0.3,1.2,0.8,1.7,1.3c0.4,0.6,0.8,1.2,1,2c0.2,0.7,0.3,1.6,0.3,2.4
		c0,1.3-0.2,2.6-0.7,3.7c-0.5,1.2-1.2,2.2-2,3.1c-0.8,0.9-1.8,1.6-3,2.1c-1.1,0.5-2.4,0.8-3.7,0.8c-0.2,0-0.5,0-0.9,0
		c-0.4,0-0.9-0.1-1.5-0.1c-0.6-0.1-1.1-0.2-1.8-0.3c-0.6-0.2-1.2-0.4-1.8-0.6l5-20.9l4.5-0.7l-1.8,7.4c0.4-0.2,0.8-0.3,1.1-0.4
		C330.1,334.9,330.5,334.9,330.9,334.9L330.9,334.9z M327.2,347.2c0.7,0,1.3-0.2,1.9-0.5c0.6-0.3,1.1-0.8,1.5-1.3
		c0.4-0.5,0.8-1.2,1-1.9c0.2-0.7,0.4-1.4,0.4-2.2c0-0.9-0.2-1.6-0.5-2.2c-0.3-0.5-0.9-0.8-1.7-0.8c-0.3,0-0.6,0.1-1,0.1
		c-0.4,0.1-0.8,0.3-1.2,0.6l-1.9,7.9c0.1,0,0.2,0,0.3,0.1c0.1,0,0.2,0,0.3,0c0.1,0,0.2,0,0.3,0S327,347.2,327.2,347.2L327.2,347.2z"
		/>
	<path class="st2" d="M340.9,350.3h-4.3l3.6-15.1h4.3L340.9,350.3z M343,333.4c-0.6,0-1.1-0.2-1.6-0.5c-0.5-0.4-0.7-0.9-0.7-1.6
		c0-0.4,0.1-0.8,0.2-1.1c0.2-0.4,0.4-0.7,0.6-0.9c0.3-0.3,0.6-0.5,0.9-0.6c0.4-0.2,0.7-0.2,1.1-0.2c0.6,0,1.1,0.2,1.6,0.5
		c0.5,0.4,0.7,0.9,0.7,1.6c0,0.4-0.1,0.8-0.2,1.1c-0.2,0.4-0.4,0.7-0.6,0.9c-0.3,0.3-0.6,0.5-0.9,0.6
		C343.7,333.3,343.4,333.4,343,333.4z"/>
	<path class="st2" d="M348.2,331.4l4.5-0.7l-1.1,4.5h4.8l-0.9,3.5h-4.7l-1.3,5.3c-0.1,0.4-0.2,0.9-0.2,1.2c0,0.4,0,0.7,0.1,1
		c0.1,0.3,0.3,0.5,0.6,0.6c0.3,0.2,0.7,0.2,1.3,0.2c0.5,0,0.9,0,1.3-0.1c0.4-0.1,0.9-0.2,1.3-0.4l0.3,3.3c-0.6,0.2-1.2,0.4-1.9,0.5
		c-0.7,0.2-1.5,0.2-2.4,0.2c-1.3,0-2.3-0.2-3.1-0.6c-0.7-0.4-1.2-0.9-1.6-1.6c-0.3-0.7-0.4-1.5-0.4-2.3c0-0.9,0.2-1.8,0.4-2.8
		L348.2,331.4L348.2,331.4z"/>
	<path class="st2" d="M356.2,344.3c0-1.3,0.2-2.5,0.6-3.7c0.4-1.1,1-2.2,1.8-3c0.8-0.9,1.7-1.5,2.9-2c1.1-0.5,2.4-0.7,3.7-0.7
		c0.9,0,1.6,0.1,2.3,0.2c0.7,0.2,1.3,0.4,1.9,0.6l-1.5,3.3c-0.4-0.2-0.8-0.3-1.2-0.4c-0.4-0.1-0.9-0.2-1.5-0.2
		c-1.4,0-2.5,0.5-3.4,1.5c-0.8,1-1.3,2.3-1.3,3.9c0,1,0.2,1.8,0.6,2.4c0.4,0.6,1.2,0.9,2.3,0.9c0.6,0,1.1-0.1,1.6-0.2
		c0.5-0.1,1-0.3,1.4-0.4l0.3,3.4c-0.5,0.2-1.1,0.4-1.8,0.6c-0.7,0.2-1.4,0.2-2.3,0.2c-1.2,0-2.2-0.2-3-0.5c-0.8-0.3-1.5-0.8-2-1.4
		c-0.5-0.6-0.9-1.3-1.2-2.1C356.3,346,356.2,345.1,356.2,344.3z"/>
	<path class="st2" d="M375.1,350.7c-1,0-1.9-0.2-2.6-0.5c-0.7-0.3-1.4-0.7-1.9-1.3c-0.5-0.6-0.9-1.2-1.1-2c-0.3-0.8-0.4-1.6-0.4-2.5
		c0-1.2,0.2-2.3,0.6-3.4c0.4-1.1,0.9-2.2,1.7-3.1c0.7-0.9,1.6-1.7,2.7-2.3c1.1-0.6,2.3-0.9,3.6-0.9c1,0,1.9,0.2,2.6,0.5
		c0.8,0.3,1.4,0.7,1.9,1.3c0.5,0.6,0.9,1.2,1.1,2c0.3,0.8,0.4,1.6,0.4,2.5c0,1.1-0.2,2.3-0.5,3.4c-0.4,1.1-0.9,2.2-1.6,3.1
		c-0.7,0.9-1.6,1.7-2.7,2.3C377.7,350.4,376.5,350.7,375.1,350.7z M377.2,338.4c-0.6,0-1.2,0.2-1.7,0.5c-0.5,0.4-0.9,0.8-1.2,1.4
		c-0.3,0.6-0.6,1.2-0.7,1.8c-0.2,0.7-0.2,1.3-0.2,1.9c0,1,0.2,1.7,0.5,2.2c0.3,0.5,0.9,0.8,1.7,0.8c0.6,0,1.2-0.2,1.7-0.5
		c0.5-0.4,0.9-0.8,1.2-1.4c0.3-0.6,0.6-1.2,0.7-1.8c0.2-0.7,0.2-1.3,0.2-1.9c0-1-0.2-1.7-0.5-2.2C378.5,338.7,378,338.4,377.2,338.4
		L377.2,338.4z"/>
	<path class="st2" d="M388.2,350.3h-4.3l3.6-15.1h4.3L388.2,350.3z M390.3,333.4c-0.6,0-1.1-0.2-1.6-0.5c-0.5-0.4-0.7-0.9-0.7-1.6
		c0-0.4,0.1-0.8,0.2-1.1c0.2-0.4,0.4-0.7,0.6-0.9c0.3-0.3,0.6-0.5,0.9-0.6c0.4-0.2,0.7-0.2,1.1-0.2c0.6,0,1.1,0.2,1.6,0.5
		c0.5,0.4,0.7,0.9,0.7,1.6c0,0.4-0.1,0.8-0.2,1.1c-0.2,0.4-0.4,0.7-0.6,0.9c-0.3,0.3-0.6,0.5-0.9,0.6
		C391,333.3,390.7,333.4,390.3,333.4z"/>
	<path class="st2" d="M394.9,335.9c0.3-0.1,0.7-0.2,1.1-0.3c0.4-0.1,0.8-0.2,1.3-0.3c0.5-0.1,1-0.2,1.6-0.3c0.6-0.1,1.3-0.1,2.1-0.1
		c2.2,0,3.8,0.7,4.6,2c0.9,1.3,1,3.1,0.4,5.3l-2,8.2h-4.3l1.9-8c0.1-0.5,0.2-1,0.3-1.5c0.1-0.5,0.1-0.9,0-1.2
		c-0.1-0.4-0.3-0.6-0.5-0.9c-0.3-0.2-0.7-0.3-1.3-0.3c-0.6,0-1.1,0.1-1.7,0.2l-2.8,11.7h-4.3L394.9,335.9z"/>
</g>
</svg>
