<?xml version="1.0" encoding="utf-8"?>
<!-- Generator: Adobe Illustrator 23.0.1, SVG Export Plug-In . SVG Version: 6.00 Build 0)  -->
<svg version="1.1" id="Layer_1" xmlns="http://www.w3.org/2000/svg" xmlns:xlink="http://www.w3.org/1999/xlink" x="0px" y="0px"
	 viewBox="0 0 124.8 44.8" style="enable-background:new 0 0 124.8 44.8;" xml:space="preserve">
<style type="text/css">
	.st0{fill-rule:evenodd;clip-rule:evenodd;fill:#3A4451;}
	.st1{filter:url(#Adobe_OpacityMaskFilter);}
	.st2{fill-rule:evenodd;clip-rule:evenodd;fill:#FFFFFF;}
	.st3{mask:url(#mask-2_2_);fill-rule:evenodd;clip-rule:evenodd;fill:#3A4451;}
</style>
<g id="Page-1">
	<g id="Imported-Layers" transform="translate(-3.000000, 0.000000)">
		<path id="Fill-1" class="st0" d="M10,27c-1.7,0-3.3-1.2-3.3-3.9c0-2.6,1.6-3.8,3.3-3.8c0.8,0,1.4,0.2,1.9,0.5l-0.6,1.3
			c-0.3-0.2-0.7-0.3-1.1-0.3c-0.9,0-1.6,0.8-1.6,2.3c0,1.5,0.7,2.3,1.6,2.3c0.4,0,0.8-0.1,1.1-0.3l0.6,1.4C11.4,26.9,10.8,27,10,27"
			/>
		<path id="Fill-2" class="st0" d="M16,20.8c-1,0-1.5,0.9-1.5,2.4c0,1.5,0.5,2.4,1.5,2.4c1,0,1.5-0.9,1.5-2.4
			C17.5,21.7,17,20.8,16,20.8L16,20.8z M16,27c-2.1,0-3.3-1.7-3.3-3.9s1.2-3.8,3.3-3.8c2.1,0,3.3,1.6,3.3,3.8S18.2,27,16,27L16,27z"
			/>
		<path id="Fill-3" class="st0" d="M20.8,19.5h1.8v7.4h-1.8V19.5z M21.7,18.3c-0.6,0-1.1-0.5-1.1-1c0-0.6,0.5-1,1.1-1
			c0.6,0,1.1,0.4,1.1,1C22.8,17.9,22.3,18.3,21.7,18.3L21.7,18.3z"/>
		<path id="Fill-4" class="st0" d="M28.5,26.9V22c0-0.7-0.4-1.2-1.3-1.2c-0.4,0-0.9,0.1-1.1,0.2v5.9h-1.8v-7
			c0.8-0.3,1.7-0.5,2.9-0.5c2.2,0,3.2,0.9,3.2,2.5v5.1H28.5"/>
		<path id="Fill-5" class="st0" d="M34.9,20.8c-0.3,0-0.7,0.1-0.9,0.2v4.4c0.2,0.1,0.5,0.2,0.9,0.2c1.1,0,1.8-0.8,1.8-2.4
			C36.5,21.7,35.9,20.8,34.9,20.8L34.9,20.8z M34.7,27c-1,0-2-0.2-2.6-0.5V16.1h1.8v3.5c0.3-0.2,0.9-0.2,1.3-0.2
			c1.9,0,3.2,1.3,3.2,3.6C38.4,25.7,37,27,34.7,27L34.7,27z"/>
		<path id="Fill-6" class="st0" d="M43.8,23.3c-1.4,0.1-2.6,0.2-2.6,1.3c0,0.7,0.5,1.1,1.5,1.1c0.4,0,0.9-0.1,1-0.2V23.3L43.8,23.3z
			 M42.8,27c-2.2,0-3.3-0.9-3.3-2.4c0-2,2.1-2.4,4.3-2.5v-0.4c0-0.8-0.5-1.1-1.4-1.1c-0.7,0-1.5,0.2-2.1,0.4l-0.5-1.3
			c0.6-0.3,1.7-0.5,2.7-0.5c1.9,0,2.9,0.7,2.9,2.6v4.5C45,26.8,43.9,27,42.8,27L42.8,27z"/>
		<g id="Group-9" transform="translate(219.251101, 20.888889)">
			<g id="Clip-8">
			</g>
			<defs>
				<filter id="Adobe_OpacityMaskFilter" filterUnits="userSpaceOnUse" x="-179.8" y="-1.6" width="6.1" height="7.7">
					<feColorMatrix  type="matrix" values="1 0 0 0 0  0 1 0 0 0  0 0 1 0 0  0 0 0 1 0"/>
				</filter>
			</defs>
			<mask maskUnits="userSpaceOnUse" x="-179.8" y="-1.6" width="6.1" height="7.7" id="mask-2_2_">
				<g class="st1">
					<path id="path-1_2_" class="st2" d="M-175.5,2.4c-1.4,0.1-2.6,0.2-2.6,1.3c0,0.7,0.5,1.1,1.5,1.1c0.4,0,0.9-0.1,1-0.2V2.4
						L-175.5,2.4z M-176.5,6.1c-2.2,0-3.3-0.9-3.3-2.4c0-2,2.1-2.4,4.3-2.5V0.8c0-0.8-0.5-1.1-1.4-1.1c-0.7,0-1.5,0.2-2.1,0.4
						l-0.5-1.3c0.6-0.3,1.7-0.5,2.7-0.5c1.9,0,2.9,0.7,2.9,2.6v4.5C-174.3,5.9-175.4,6.1-176.5,6.1L-176.5,6.1z"/>
				</g>
			</mask>
			<path id="Fill-7" class="st3" d="M-179.8-1.6h6.1v7.7h-6.1V-1.6z"/>
		</g>
		<path id="Fill-10" class="st0" d="M49.1,27c-0.9,0-1.7-0.2-2.4-0.5l0.6-1.4c0.5,0.3,1.2,0.5,1.7,0.5c0.7,0,1.1-0.3,1.1-0.8
			c0-0.5-0.5-0.8-1.1-1c-0.9-0.3-2.1-0.8-2.1-2.2c0-1.3,1-2.2,2.7-2.2c0.8,0,1.6,0.2,2.3,0.5l-0.6,1.3c-0.4-0.2-0.9-0.4-1.5-0.4
			c-0.7,0-1,0.3-1,0.8c0,0.6,0.6,0.8,1.1,1c1,0.4,2.1,0.8,2.1,2.2C52.1,26.1,51.1,27,49.1,27"/>
		<path id="Fill-11" class="st0" d="M56.6,20.7c-1,0-1.6,0.7-1.7,2.1l3.1-0.4C58,21.2,57.4,20.7,56.6,20.7L56.6,20.7z M59.7,23.3
			L55,23.9c0.2,1.1,1,1.6,2,1.6c0.7,0,1.5-0.2,2-0.5l0.5,1.4C59,26.8,58,27,56.9,27c-2.4,0-3.7-1.6-3.7-3.9c0-2.3,1.3-3.8,3.4-3.8
			c2,0,3.2,1.3,3.2,3.4C59.8,22.9,59.8,23.1,59.7,23.3L59.7,23.3z"/>
		<path id="Fill-12" class="st0" d="M78.3,22.6l-5.3,0.8c0.1,2,1.2,3,2.8,3c0.7,0,1.5-0.2,2-0.5l0.2,0.4c-0.5,0.3-1.3,0.5-2.2,0.5
			c-2,0-3.4-1.3-3.4-3.8c0-2.3,1.2-3.8,3-3.8c1.6,0,2.7,1,2.7,3C78.3,22.4,78.3,22.5,78.3,22.6L78.3,22.6z M75.6,19.7
			C74,19.7,73.1,21,73,23l4.8-0.7C77.8,20.5,76.9,19.7,75.6,19.7L75.6,19.7z"/>
		<path id="Fill-13" class="st0" d="M82.7,22.1l1.8-2.7h-0.6l-1.5,2.3L82.7,22.1"/>
		<path id="Fill-14" class="st0" d="M82.1,22.9l-2.4-3.5h-0.6l2.4,3.5L79,26.7h0.6L82.1,22.9"/>
		<path id="Fill-15" class="st0" d="M82.7,23.7l-0.3,0.4l1.7,2.6h0.6L82.7,23.7"/>
		<path id="Fill-16" class="st0" d="M88.3,26.9c-1.4,0-3-1-3-3.8c0-2.8,1.6-3.8,3-3.8c0.6,0,1.3,0.2,1.7,0.5l-0.2,0.4
			c-0.4-0.3-0.9-0.4-1.5-0.4c-1.2,0-2.5,0.8-2.5,3.3c0,2.5,1.3,3.4,2.5,3.4c0.5,0,1.1-0.2,1.5-0.5l0.2,0.4
			C89.6,26.7,88.9,26.9,88.3,26.9"/>
		<path id="Fill-17" class="st0" d="M95.9,26.7v-5.1c0-1.3-0.9-1.9-2.2-1.9c-0.7,0-1.4,0.2-1.9,0.5v6.5h-0.5V16h0.5v3.7
			c0.5-0.3,1.3-0.5,1.9-0.5c1.7,0,2.8,0.8,2.8,2.4v5.1H95.9"/>
		<path id="Fill-18" class="st0" d="M100.6,26.9c-1.8,0-2.8-0.9-2.8-2.2c0-2.2,2.4-2.4,4.6-2.5v-0.7c0-1.4-0.9-1.8-2.1-1.8
			c-0.7,0-1.5,0.2-1.9,0.5l-0.2-0.4c0.5-0.3,1.3-0.5,2.1-0.5c1.4,0,2.6,0.6,2.6,2.2v4.9C102.4,26.7,101.4,26.9,100.6,26.9
			L100.6,26.9z M102.4,22.6c-1.9,0.1-4.1,0.2-4.1,2.1c0,1,0.7,1.7,2.3,1.7c0.7,0,1.5-0.2,1.8-0.3V22.6L102.4,22.6z"/>
		<path id="Fill-19" class="st0" d="M109.3,26.7v-5.1c0-1.2-0.7-1.9-2.2-1.9c-0.8,0-1.5,0.2-2,0.3v6.7h-0.5v-7
			c0.6-0.3,1.5-0.5,2.5-0.5c1.7,0,2.7,0.9,2.7,2.4v5.1H109.3"/>
		<path id="Fill-20" class="st0" d="M123.8,22.6l-5.3,0.8c0.1,2,1.2,3,2.8,3c0.7,0,1.5-0.2,2-0.5l0.2,0.4c-0.5,0.3-1.3,0.5-2.2,0.5
			c-2,0-3.3-1.3-3.3-3.8c0-2.3,1.2-3.8,3-3.8c1.6,0,2.7,1,2.7,3C123.8,22.4,123.8,22.5,123.8,22.6L123.8,22.6z M121,19.7
			c-1.6,0-2.5,1.3-2.5,3.2l4.8-0.7C123.3,20.5,122.4,19.7,121,19.7L121,19.7z"/>
		<path id="Fill-21" class="st0" d="M114.5,19.3c-1.8,0-3.3,1.1-3.3,3.7c0,2.3,1.3,3.5,3.2,3.5c0.7,0,1.3-0.1,1.7-0.4v0.8
			c0,1.6-0.8,2.5-2.3,2.5c-0.2,0-0.4,0-0.5,0l-0.1,0.5c0.2,0,0.4,0,0.6,0c1.8,0,2.8-1.1,2.8-2.9v-7.1
			C116.1,19.5,115.3,19.3,114.5,19.3L114.5,19.3z M116.1,25.6c-0.4,0.2-1.1,0.4-1.7,0.4c-1.5,0-2.6-1-2.6-3c0-2.4,1.3-3.2,2.8-3.2
			c0.6,0,1.3,0.2,1.6,0.3V25.6L116.1,25.6z"/>
		<path id="Fill-22" class="st0" d="M66,16.1h0.5v13.8H66V16.1z"/>
		<path id="Fill-23" class="st0" d="M67.5,19.4h0.5v7.6h-0.5V19.4z"/>
		<path id="Fill-24" class="st0" d="M64.4,19.4h0.5v7.6h-0.5V19.4z"/>
	</g>
</g>
</svg>
