<?xml version="1.0" encoding="utf-8"?>
<!-- Generator: Adobe Illustrator 23.0.1, SVG Export Plug-In . SVG Version: 6.00 Build 0)  -->
<svg version="1.1" id="Layer_1" xmlns="http://www.w3.org/2000/svg" xmlns:xlink="http://www.w3.org/1999/xlink" x="0px" y="0px"
	 viewBox="0 0 124.8 44.8" style="enable-background:new 0 0 124.8 44.8;" xml:space="preserve">
<style type="text/css">
	.st0{fill-rule:evenodd;clip-rule:evenodd;fill:#231F20;}
</style>
<g>
	<polygon class="st0" points="16,39.1 22.5,39.2 22.5,24.6 30.5,24.6 30.5,18.8 22.6,18.8 22.6,11.9 30.5,11.9 30.5,5.6 16,5.5 
		16,39.1 	"/>
	<path class="st0" d="M41.8,12.6c-0.1,0-0.2,0-0.2,0c-6.8,0.1-10.3,6.3-10.3,14.3c0,7.9,5,12.8,10.6,12.9c0.1,0,0.2,0,0.3,0
		c5.7,0,10.4-5.6,10.4-13.3C52.5,17.9,48.5,12.5,41.8,12.6L41.8,12.6z M42.1,33.7c-0.1,0-0.2,0-0.3,0c-3.6-0.1-4.4-4.1-4.4-7.5
		c0-3.5,0.6-7.7,4.4-7.9c3.8-0.1,4.4,4.6,4.4,7.4C46.1,28.6,46,33.7,42.1,33.7L42.1,33.7z"/>
	<polygon class="st0" points="100.5,25.7 107,13.3 100.4,13.3 97.1,19.3 89.2,5.4 83.8,5.4 81.9,5.4 83.8,8.9 93.5,26.1 86.7,38.9 
		93.5,38.9 97.1,32.2 100.6,38.6 107.9,38.6 100.5,25.7 	"/>
	<polygon class="st0" points="79.6,33.6 79.6,27.9 83.8,27.9 85.7,27.9 85.8,22.8 83.8,22.9 79.6,22.9 79.6,18 83.8,18 85.6,18 
		85.7,13.3 83.8,13.3 73.6,13.3 73.6,38.8 83.8,38.8 85.8,38.8 85.8,33.6 83.8,33.6 79.6,33.6 	"/>
	<path class="st0" d="M72.5,19.1c-0.7-3.4-2.9-5.8-7.1-5.8h-1.9h-9.5v25.5l6.1,0V28.4l3.4,6l2.4,4.3l6.6,0l-5.7-10.4
		C71.5,27.3,73.2,22.5,72.5,19.1L72.5,19.1z M63.8,23.9h-0.2l-3.5,0v-5.7l3.5,0h0.6C68.1,18.3,68,23.9,63.8,23.9L63.8,23.9z"/>
</g>
</svg>
